<mxfile host="65bd71144e">
    <diagram id="IZaMaNv83GGYVcbvc7Aa" name="Page-1">
        <mxGraphModel dx="983" dy="719" grid="0" gridSize="10" guides="1" tooltips="1" connect="1" arrows="1" fold="1" page="1" pageScale="1" pageWidth="1100" pageHeight="850" math="0" shadow="0">
            <root>
                <mxCell id="0"/>
                <mxCell id="1" parent="0"/>
                <mxCell id="2" value="&lt;h1&gt;Request:&lt;/h1&gt;&lt;p&gt;A commodity futures trading firm would like to ingest daily prices of 3 commodities into their cloud database for technical analysis.&lt;/p&gt;" style="text;html=1;strokeColor=none;fillColor=none;spacing=5;spacingTop=-20;whiteSpace=wrap;overflow=hidden;rounded=0;" parent="1" vertex="1">
                    <mxGeometry x="10" y="20" width="190" height="120" as="geometry"/>
                </mxCell>
                <mxCell id="18" style="edgeStyle=none;html=1;" parent="1" source="3" target="4" edge="1">
                    <mxGeometry relative="1" as="geometry"/>
                </mxCell>
                <mxCell id="3" value="" style="shape=image;verticalLabelPosition=bottom;labelBackgroundColor=default;verticalAlign=top;aspect=fixed;imageAspect=0;image=https://www.logo.wine/a/logo/Google_Storage/Google_Storage-Logo.wine.svg;" parent="1" vertex="1">
                    <mxGeometry x="480.57000000000005" y="276" width="164.85" height="110" as="geometry"/>
                </mxCell>
                <mxCell id="20" style="edgeStyle=none;html=1;" parent="1" source="4" target="19" edge="1">
                    <mxGeometry relative="1" as="geometry"/>
                </mxCell>
                <mxCell id="4" value="" style="shape=image;verticalLabelPosition=bottom;labelBackgroundColor=default;verticalAlign=top;aspect=fixed;imageAspect=0;image=https://www.ancoris.com/hubfs/Google%20Cloud%20Logos/Cloud%20Composer.png;" parent="1" vertex="1">
                    <mxGeometry x="523.9999999999999" y="463" width="78" height="78" as="geometry"/>
                </mxCell>
                <mxCell id="5" value="" style="shape=image;verticalLabelPosition=bottom;labelBackgroundColor=default;verticalAlign=top;aspect=fixed;imageAspect=0;image=https://cdn.icon-icons.com/icons2/2699/PNG/512/google_bigquery_logo_icon_168150.png;" parent="1" vertex="1">
                    <mxGeometry x="523.9999999999999" y="146" width="82" height="82" as="geometry"/>
                </mxCell>
                <mxCell id="6" value="&lt;h1&gt;Scopes&lt;/h1&gt;&lt;p&gt;Data Source: Yahoo Finance API&lt;/p&gt;&lt;p&gt;Data Format: Structured table data, Time-Series&lt;br&gt;&lt;/p&gt;&lt;p&gt;Data Dimensions: Commodity Tickers&lt;/p&gt;&lt;p&gt;&amp;nbsp; &amp;nbsp;* Soybeans (ZS)&lt;/p&gt;&lt;p&gt;&amp;nbsp; &amp;nbsp;* Brent Crude (EB)&lt;/p&gt;&lt;p&gt;&amp;nbsp; &amp;nbsp;* Natural Gas (NG)&lt;/p&gt;&lt;p&gt;Data Metrics: Price/Volume&lt;/p&gt;&lt;p&gt;Schedule: Daily - close prices&lt;/p&gt;" style="text;html=1;strokeColor=none;fillColor=none;spacing=5;spacingTop=-20;whiteSpace=wrap;overflow=hidden;rounded=0;" parent="1" vertex="1">
                    <mxGeometry x="10" y="190" width="230" height="290" as="geometry"/>
                </mxCell>
                <mxCell id="7" value="&lt;h1&gt;Airflow DAG&lt;/h1&gt;&lt;p&gt;commodity_write_truncate.py&lt;/p&gt;&lt;p&gt;&lt;b&gt;Temporary Storage Bucket: &lt;/b&gt;buckets/tmp_commodity_uuid&lt;b&gt;&lt;br&gt;&lt;/b&gt;&lt;/p&gt;&lt;p&gt;&lt;b&gt;&lt;br&gt;&lt;/b&gt;&lt;/p&gt;&lt;p&gt;&lt;b&gt;Functions:&lt;/b&gt;&lt;/p&gt;&lt;p&gt;get_data()&lt;/p&gt;&lt;p&gt;&lt;span style=&quot;white-space: pre;&quot;&gt;&#9;&lt;/span&gt;'''&lt;br&gt;&lt;/p&gt;&lt;p&gt;&lt;span style=&quot;white-space: pre;&quot;&gt;&#9;&lt;/span&gt;collect ticker data and store &lt;span style=&quot;white-space: pre;&quot;&gt;&#9;&lt;/span&gt;in temp GCS bucket&lt;br&gt;&lt;/p&gt;&lt;p&gt;&lt;span style=&quot;white-space: pre;&quot;&gt;&#9;&lt;/span&gt;'''&lt;/p&gt;" style="text;html=1;strokeColor=none;fillColor=none;spacing=5;spacingTop=-20;whiteSpace=wrap;overflow=hidden;rounded=0;" parent="1" vertex="1">
                    <mxGeometry x="284" y="481" width="190" height="185" as="geometry"/>
                </mxCell>
                <mxCell id="8" value="&lt;h1&gt;Tasks&lt;/h1&gt;&lt;p&gt;generate_uuid (for unique csv storage)&lt;/p&gt;&lt;p&gt;&amp;nbsp; &amp;nbsp;create_bucket (to store commodity data)&lt;/p&gt;&lt;p&gt;&amp;nbsp; &amp;nbsp; &amp;nbsp; pull_commodity_data_to_gcs&lt;/p&gt;&lt;p&gt;&amp;nbsp; &amp;nbsp; &amp;nbsp; &amp;nbsp; &amp;nbsp;load_to_bq&lt;/p&gt;&lt;p&gt;&amp;nbsp; &amp;nbsp; &amp;nbsp; &amp;nbsp; &amp;nbsp; &amp;nbsp; delete_bucket&lt;/p&gt;" style="text;html=1;strokeColor=none;fillColor=none;spacing=5;spacingTop=-20;whiteSpace=wrap;overflow=hidden;rounded=0;" parent="1" vertex="1">
                    <mxGeometry x="674" y="481" width="240" height="185" as="geometry"/>
                </mxCell>
                <mxCell id="9" value="&lt;h1&gt;Airflow Location&lt;/h1&gt;&lt;p&gt;&lt;b&gt;Google Cloud Storage Dag Bucket:&lt;/b&gt;&lt;/p&gt;&lt;p&gt;buckets/us-central-1-van-environment-uuid-bucket/dags&lt;/p&gt;" style="text;html=1;strokeColor=none;fillColor=none;spacing=5;spacingTop=-20;whiteSpace=wrap;overflow=hidden;rounded=0;" parent="1" vertex="1">
                    <mxGeometry x="284" y="306" width="220" height="120" as="geometry"/>
                </mxCell>
                <mxCell id="10" value="&lt;h1&gt;Database Location&lt;/h1&gt;&lt;p&gt;&lt;b&gt;Google BigQuery table:&lt;/b&gt;&lt;/p&gt;&lt;p&gt;e-commerce-demo-v.dag_examples.commodity_prices_wt&lt;/p&gt;" style="text;html=1;strokeColor=none;fillColor=none;spacing=5;spacingTop=-20;whiteSpace=wrap;overflow=hidden;rounded=0;" parent="1" vertex="1">
                    <mxGeometry x="284" y="146" width="230" height="120" as="geometry"/>
                </mxCell>
                <mxCell id="15" style="edgeStyle=none;html=1;exitX=1;exitY=1;exitDx=0;exitDy=0;entryX=0.5;entryY=0;entryDx=0;entryDy=0;" parent="1" source="11" target="12" edge="1">
                    <mxGeometry relative="1" as="geometry"/>
                </mxCell>
                <mxCell id="11" value="" style="ellipse;whiteSpace=wrap;html=1;aspect=fixed;strokeColor=#00FF00;" parent="1" vertex="1">
                    <mxGeometry x="645.42" y="531" width="20" height="20" as="geometry"/>
                </mxCell>
                <mxCell id="16" style="edgeStyle=none;html=1;exitX=1;exitY=1;exitDx=0;exitDy=0;entryX=0.5;entryY=0;entryDx=0;entryDy=0;" parent="1" source="12" target="13" edge="1">
                    <mxGeometry relative="1" as="geometry"/>
                </mxCell>
                <mxCell id="12" value="" style="ellipse;whiteSpace=wrap;html=1;aspect=fixed;strokeColor=#00FF00;" parent="1" vertex="1">
                    <mxGeometry x="658.42" y="557" width="20" height="20" as="geometry"/>
                </mxCell>
                <mxCell id="17" style="edgeStyle=none;html=1;exitX=1;exitY=1;exitDx=0;exitDy=0;entryX=0.5;entryY=0;entryDx=0;entryDy=0;" parent="1" source="13" target="14" edge="1">
                    <mxGeometry relative="1" as="geometry"/>
                </mxCell>
                <mxCell id="13" value="" style="ellipse;whiteSpace=wrap;html=1;aspect=fixed;strokeColor=#00FF00;" parent="1" vertex="1">
                    <mxGeometry x="670.42" y="583" width="20" height="20" as="geometry"/>
                </mxCell>
                <mxCell id="14" value="" style="ellipse;whiteSpace=wrap;html=1;aspect=fixed;strokeColor=#00FF00;" parent="1" vertex="1">
                    <mxGeometry x="682.42" y="608" width="20" height="20" as="geometry"/>
                </mxCell>
                <mxCell id="19" value="" style="shape=image;verticalLabelPosition=bottom;labelBackgroundColor=default;verticalAlign=top;aspect=fixed;imageAspect=0;image=https://cdn.icon-icons.com/icons2/2699/PNG/512/google_bigquery_logo_icon_168150.png;" parent="1" vertex="1">
                    <mxGeometry x="521.9999999999999" y="656" width="82" height="82" as="geometry"/>
                </mxCell>
                <mxCell id="21" value="" style="ellipse;whiteSpace=wrap;html=1;aspect=fixed;strokeColor=#00FF00;" parent="1" vertex="1">
                    <mxGeometry x="693.42" y="634" width="20" height="20" as="geometry"/>
                </mxCell>
            </root>
        </mxGraphModel>
    </diagram>
</mxfile>